<svg xmlns="http://www.w3.org/2000/svg" viewBox="0 0 903 395" role="img" aria-labelledby="title desc">
<title id="title">CRN GROUP</title><desc id="desc">CRN GROUP official wordmark with orange flag</desc>
<g transform="translate(90 105)">
  <text x="0" y="105" fill="#ffffff" font-family="Arial,Helvetica,sans-serif" font-size="92" font-weight="500" letter-spacing="1">CRN</text>
  <g transform="translate(250 8)">
    <path d="M14 18 L48 135" fill="none" stroke="#df8738" stroke-width="9" stroke-linecap="round"/>
    <path d="M17 18 C58 30 84 45 138 50 C143 82 141 99 134 112 C94 105 80 91 47 82 C40 59 31 37 17 18 Z" fill="#df8738"/>
    <path d="M85 79 C105 69 122 73 138 77 C127 87 115 94 99 98 C94 92 89 86 85 79 Z" fill="#182d5d"/>
  </g>
  <text x="430" y="105" fill="#ffffff" font-family="Arial,Helvetica,sans-serif" font-size="92" font-weight="500" letter-spacing="1">GROUP</text>
  <text x="241" y="115" fill="#df8738" font-family="Arial,Helvetica,sans-serif" font-size="18">®</text>
</g>
</svg>